<svg xmlns="http://www.w3.org/2000/svg" xmlns:xlink="http://www.w3.org/1999/xlink" viewBox="0 0 512 512"><defs><style>.cls-1{fill:none;}.cls-2{fill:#450b15;}.cls-3{clip-path:url(#clip-path);}.cls-4{fill:url(#linear-gradient);}.cls-5{fill:#91182d;}</style><clipPath id="clip-path"><path class="cls-1" d="M423.12,117.83h0a98.86,98.86,0,0,0-141.52.59l-7,7.2a26.43,26.43,0,0,1-37.78.16l-7.05-7.14a98.85,98.85,0,0,0-141.51.59h0c-38.75,39.93-38.48,105,.6,144.6L193.67,370a20.87,20.87,0,0,0,4.12,3.22h0l42.83,43.39a23.72,23.72,0,0,0,34-.14L347.85,341a22.71,22.71,0,0,0,2.15-2.59h0l73.72-76C462.47,222.49,462.2,157.43,423.12,117.83Z"/></clipPath><linearGradient id="linear-gradient" x1="125.38" y1="60.9" x2="388.37" y2="323.89" gradientUnits="userSpaceOnUse"><stop offset="0" stop-color="#d63854"/><stop offset="1" stop-color="#a81b33"/></linearGradient></defs><g id="Layer_3" data-name="Layer 3"><path class="cls-2" d="M257.53,433.7a33.53,33.53,0,0,1-24-10.06l-42-42.59a30.76,30.76,0,0,1-4.93-4L81.77,270.85c-43-43.54-43.27-114.68-.67-158.58a108.85,108.85,0,0,1,155.81-.66l7,7.14a16.44,16.44,0,0,0,23.49-.09l7-7.2a108.84,108.84,0,0,1,155.8-.66c43,43.54,43.27,114.68.67,158.59l-73.27,75.49a33,33,0,0,1-2.6,3.06l-73.27,75.49a33.52,33.52,0,0,1-24.23,10.27Z"/><path class="cls-2" d="M352.65,88.3a98.71,98.71,0,0,1,70.47,29.53h0c39.08,39.6,39.35,104.66.6,144.59l-73.72,76h0a22.71,22.71,0,0,1-2.15,2.59l-73.27,75.5a23.71,23.71,0,0,1-34,.14l-42.83-43.39a20.87,20.87,0,0,1-4.12-3.22L88.88,263.83c-39.08-39.6-39.35-104.67-.6-144.6h0a98.84,98.84,0,0,1,141.51-.59l7.05,7.14a26.44,26.44,0,0,0,37.78-.16l7-7.2a98.7,98.7,0,0,1,71-30.12m0-20a118.7,118.7,0,0,0-85.4,36.19l-7,7.2a6.39,6.39,0,0,1-4.62,2,6.31,6.31,0,0,1-4.58-1.91l-7-7.14a118.79,118.79,0,0,0-170.09.71c-46.37,47.78-46,125.19.72,172.57L179.43,384.05a40.62,40.62,0,0,0,5.61,4.72l41.34,41.89a43.72,43.72,0,0,0,62.55-.26l73.27-75.5a41.92,41.92,0,0,0,3-3.47l72.86-75.08c46.37-47.77,46-125.19-.72-172.57a118.18,118.18,0,0,0-84.7-35.48Z"/><g class="cls-3"><path class="cls-4" d="M257.53,438.7a38.49,38.49,0,0,1-27.59-11.55l-41.67-42.23a34.43,34.43,0,0,1-5.27-4.38L78.21,274.36C33.34,228.9,33,154.62,77.51,108.79a113.84,113.84,0,0,1,163-.69l7,7.14a11.43,11.43,0,0,0,16.34-.07l7-7.2a113.85,113.85,0,0,1,163-.68c44.87,45.46,45.18,119.74.7,165.58l-73.06,75.28a39.08,39.08,0,0,1-2.81,3.27l-73.27,75.5a38.51,38.51,0,0,1-27.82,11.78Z"/><path class="cls-2" d="M352.65,88.3a98.71,98.71,0,0,1,70.47,29.53c39.08,39.6,39.35,104.66.6,144.59l-73.72,76h0a22.71,22.71,0,0,1-2.15,2.59l-73.27,75.5a23.71,23.71,0,0,1-34,.14l-42.83-43.39a20.87,20.87,0,0,1-4.12-3.22L88.88,263.83c-39.08-39.6-39.35-104.67-.6-144.6h0a98.84,98.84,0,0,1,141.51-.59l7.05,7.14a26.44,26.44,0,0,0,37.78-.16l7-7.2a98.7,98.7,0,0,1,71-30.12m0-30a128.63,128.63,0,0,0-92.57,39.23l-4.45,4.58-4.49-4.55a128.79,128.79,0,0,0-184.39.78C16.63,150,17,233.68,67.53,284.9L172.32,391.07a49.75,49.75,0,0,0,6.21,5.34l40.74,41.28a53.72,53.72,0,0,0,76.84-.33l73.27-75.49c1.16-1.2,2.27-2.47,3.37-3.85l72.5-74.71C495.37,231.67,495,148,444.47,96.75A128.13,128.13,0,0,0,352.65,58.3Z"/><path class="cls-5" d="M295.57,94.82a3,3,0,0,0,2.79.47C353.36,79,434,162.94,388.27,219.7c-52.89,65.66-168,178-168,178s23,52,52,33,210-192,195-241S437.2,65.4,360.2,75.4C300.52,83.15,293.18,92.8,295.57,94.82Z"/></g></g></svg>