<svg xmlns="http://www.w3.org/2000/svg" viewBox="0 0 512 512"><defs><style>.cls-1{fill:#d63854;}.cls-2{fill:#450b15;}.cls-3{fill:#a81b33;}.cls-4{fill:none;stroke:#fff;stroke-linecap:round;stroke-linejoin:round;stroke-width:20px;}</style></defs><g id="Layer_3" data-name="Layer 3"><path class="cls-1" d="M257.53,438.7a38.49,38.49,0,0,1-27.59-11.55l-41.67-42.23a35.67,35.67,0,0,1-5.28-4.39L78.21,274.36C33.34,228.9,33,154.62,77.51,108.79a113.85,113.85,0,0,1,163-.69l7,7.14a11.43,11.43,0,0,0,16.34-.07l7-7.2a113.85,113.85,0,0,1,163-.68c44.87,45.46,45.18,119.74.7,165.58l-73.06,75.28a38.83,38.83,0,0,1-2.81,3.27l-73.27,75.5a38.51,38.51,0,0,1-27.82,11.78Z"/><path class="cls-2" d="M352.65,88.3a98.71,98.71,0,0,1,70.47,29.53c39.08,39.6,39.35,104.66.6,144.59l-73.72,76a22.71,22.71,0,0,1-2.15,2.59l-73.27,75.5a23.71,23.71,0,0,1-34,.14l-42.83-43.39a20.87,20.87,0,0,1-4.12-3.22L88.88,263.83c-39.08-39.6-39.35-104.67-.6-144.6h0a98.84,98.84,0,0,1,141.51-.59l7.05,7.14a26.44,26.44,0,0,0,37.78-.16l7-7.2a98.7,98.7,0,0,1,71-30.12m0-30a128.63,128.63,0,0,0-92.57,39.23l-4.45,4.58-4.49-4.54a128.78,128.78,0,0,0-184.39.77C16.63,150,17,233.68,67.53,284.9L172.32,391.07a49.75,49.75,0,0,0,6.21,5.34l40.74,41.28a53.72,53.72,0,0,0,76.84-.33l73.27-75.49c1.16-1.2,2.27-2.47,3.37-3.85l72.5-74.71C495.37,231.67,495,148,444.47,96.75A128.13,128.13,0,0,0,352.65,58.3Z"/><path class="cls-3" d="M297.27,95.7c30.28-12.66,151.81,31.06,91,124-46.16,70.55-168,178-168,178s23,52,52,33,210-192,195-241-36-120-113-110S297.27,95.7,297.27,95.7Z"/><path class="cls-2" d="M352.65,88.3a98.71,98.71,0,0,1,70.47,29.53h0c39.08,39.6,39.35,104.66.6,144.59l-73.72,76a22.71,22.71,0,0,1-2.15,2.59l-73.27,75.5a23.71,23.71,0,0,1-34,.14l-42.83-43.39a20.87,20.87,0,0,1-4.12-3.22L88.88,263.83c-39.08-39.6-39.35-104.67-.6-144.6h0a98.84,98.84,0,0,1,141.51-.59l12.56,12.73a18.76,18.76,0,0,0,26.8-.11l12.45-12.84a98.7,98.7,0,0,1,71-30.12m0-30a128.63,128.63,0,0,0-92.57,39.23l-4.45,4.58-4.49-4.55a128.79,128.79,0,0,0-184.39.78C16.63,150,17,233.68,67.53,284.9L172.32,391.07a49.75,49.75,0,0,0,6.21,5.34l40.74,41.28a53.72,53.72,0,0,0,76.84-.33l73.27-75.49c1.16-1.2,2.27-2.47,3.37-3.85l72.5-74.71C495.37,231.67,495,148,444.47,96.75A128.13,128.13,0,0,0,352.65,58.3Z"/><line class="cls-4" x1="144.27" y1="134.7" x2="187.27" y2="145.7"/></g></svg>