<svg xmlns="http://www.w3.org/2000/svg" viewBox="0 0 512 512"><defs><style>.cls-1{fill:#d6425c;}.cls-2{fill:#cf344f;}.cls-3{fill:none;stroke:#4f0d19;stroke-linecap:round;stroke-miterlimit:10;stroke-width:10px;}.cls-4{fill:#4f0d19;}.cls-5{fill:#fff;}.cls-6{fill:#f23030;}.cls-7{fill:#fa6982;}.cls-8{fill:#fa4e6c;}</style></defs><g id="Layer_7" data-name="Layer 7"><path class="cls-1" d="M475.76,219a108.7,108.7,0,0,0,5.11-21.86c4.88-35.53-6.06-72.94-32.77-100h0c-44.92-45.52-130.77-45.22-175.31.68L263,109.41a10.19,10.19,0,0,1-14.57.07l-8.8-11.4c-44.92-45.52-131.92-45.21-176.46.68h0C29.74,133.24,21.6,184,38.66,226.45,72.09,314.89,202.28,449.1,257.15,449.1c56.2,0,189.62-143.53,218.55-229.92Z"/><path class="cls-2" d="M448.1,97.15h0C409.58,58.12,341,52.78,294.13,81c30.79,30.56,49.23,69.44,49.23,111.77,0,93.46-89.83,170.1-204.09,177.57C183,415.23,229.59,449.1,257.15,449.1c56.2,0,189.62-143.53,218.55-229.92l.06-.17a108.7,108.7,0,0,0,5.11-21.86C485.75,161.62,474.81,124.21,448.1,97.15Z"/><path class="cls-3" d="M148,202s34.12-64.37,77,0"/><path class="cls-3" d="M287.06,202s34.12-64.37,77,0"/><path class="cls-4" d="M178.2,272.07H331.5a13,13,0,0,1,12.32,17c-8.08,25.12-30.57,69.25-89,69.25S174,314.15,165.88,289A13,13,0,0,1,178.2,272.07Z"/><path class="cls-5" d="M195.42,282.42H314.28c8.31,0,11.56,7.95,4.59,11.29-11.11,5.33-30.54,10.55-64,10.55s-52.91-5.22-64-10.55C183.87,290.37,187.11,282.42,195.42,282.42Z"/><path class="cls-6" d="M225.64,333h58.42c4.09,0,5.68,5.91,2.26,8.39-5.46,4-15,7.84-31.47,7.84s-26-3.88-31.47-7.84C220,338.9,221.55,333,225.64,333Z"/><ellipse class="cls-7" cx="94.49" cy="115.49" rx="31.61" ry="15.19"/><ellipse class="cls-8" cx="139.9" cy="96.52" rx="18.39" ry="7.72"/></g></svg>