<svg xmlns="http://www.w3.org/2000/svg" xmlns:xlink="http://www.w3.org/1999/xlink" viewBox="0 0 512 512"><defs><style>.cls-1,.cls-7{fill:none;}.cls-2{clip-path:url(#clip-path);}.cls-3{fill:url(#linear-gradient);}.cls-4{fill:#d63854;}.cls-5{fill:#4f141f;}.cls-6{fill:#b81a35;}.cls-7{stroke:#4f141f;stroke-linecap:round;stroke-miterlimit:10;stroke-width:7px;}</style><clipPath id="clip-path"><circle class="cls-1" cx="-276" cy="256" r="227"/></clipPath><linearGradient id="linear-gradient" x1="-237.89" y1="249.89" x2="-52" y2="435.77" gradientTransform="matrix(0.71, 0.57, -0.71, 0.57, 181.73, 212.12)" gradientUnits="userSpaceOnUse"><stop offset="0" stop-color="#560e1b"/><stop offset="1" stop-color="#d63854"/></linearGradient></defs><g id="Layer_4" data-name="Layer 4"><g class="cls-2"><rect class="cls-3" x="-310.09" y="218.94" width="293.83" height="211.32" transform="translate(-277.32 -20.31) rotate(-45)"/></g></g><g id="Layer_5" data-name="Layer 5"><path class="cls-4" d="M257.7,447.37A37.85,37.85,0,0,1,230.58,436l-43-43.62a26.85,26.85,0,0,1-5-4L63.25,267.57C17.31,221,17,145,62.54,98.06a116,116,0,0,1,166.11-.7l27.11,27.47,26.88-27.7a116,116,0,0,1,166.11-.69C494.69,143,495,219,449.46,266L365.7,352.26a29.2,29.2,0,0,1-2.62,3.12L285,435.8a37.8,37.8,0,0,1-27.34,11.57Z"/><path class="cls-5" d="M366,65.28a112.38,112.38,0,0,1,80.22,33.61h0c44.49,45.09,44.8,119.17.69,164.62L363,350a27.18,27.18,0,0,1-2.45,2.95l-78.05,80.42a34.58,34.58,0,0,1-49.45.21l-43.34-43.92h0A23.49,23.49,0,0,1,185,386L65.74,265.11C21.25,220,20.94,146,65.05,100.49h0a112.54,112.54,0,0,1,161.11-.67l29.62,30,29.37-30.26A112.34,112.34,0,0,1,366,65.28m0-7A118.77,118.77,0,0,0,280.13,94.7l-24.39,25.12L231.14,94.9A119.53,119.53,0,0,0,60,95.62,125.56,125.56,0,0,0,60.76,270l119.3,120.88a30.63,30.63,0,0,0,5.27,4.25l42.76,43.33a41.59,41.59,0,0,0,59.46-.25l78.05-80.42a34.63,34.63,0,0,0,2.77-3.29L452,268.39A125.56,125.56,0,0,0,451.24,94,118.89,118.89,0,0,0,366,58.28Z"/><path class="cls-6" d="M261.06,450.72a31.73,31.73,0,0,1-22.74-9.51L216,418.62l159.89-159.9a114.24,114.24,0,0,0,0-161.58L344.06,65.29,351.77,64a124,124,0,0,1,19.9-1.63,112.59,112.59,0,0,1,80.76,33.68c46.13,46.74,46.45,123.09.72,170.22l-83.27,85.79a13.39,13.39,0,0,0-.94,1.1,26.87,26.87,0,0,1-2.17,2.53L284,441a31.7,31.7,0,0,1-22.92,9.7Z"/><path class="cls-5" d="M371.67,66.4a107.94,107.94,0,0,1,77.92,32.49h0c44.49,45.09,44.8,119.16.69,164.62L367,349.3a18.84,18.84,0,0,0-1.23,1.45,24.18,24.18,0,0,1-1.88,2.19l-82.78,85.29a27.94,27.94,0,0,1-40,.17l-19.51-19.76L378.75,261.55a118.25,118.25,0,0,0,0-167.23L352.41,68a119.15,119.15,0,0,1,19.26-1.58m0-8a128.46,128.46,0,0,0-20.54,1.68l-15.41,2.51,11,11L373.09,100a110.37,110.37,0,0,1,0,155.92L216,413l-5.62,5.62,5.58,5.66L235.48,444a35.93,35.93,0,0,0,51.38-.22l82.78-85.29a30.29,30.29,0,0,0,2.47-2.88,8.5,8.5,0,0,1,.64-.75L456,269.08a126.56,126.56,0,0,0-.74-175.81,116.3,116.3,0,0,0-39.2-26.33,117.68,117.68,0,0,0-44.41-8.54Z"/><path class="cls-7" d="M123.54,122.44s42.5-13.5,70,14"/></g></svg>