<svg xmlns="http://www.w3.org/2000/svg" xmlns:xlink="http://www.w3.org/1999/xlink" viewBox="0 0 512 512"><defs><style>.cls-1,.cls-5{fill:none;}.cls-2{clip-path:url(#clip-path);}.cls-3{fill:#d63854;}.cls-4{fill:#4f141f;}.cls-5{stroke:#4f141f;stroke-linecap:round;stroke-miterlimit:10;stroke-width:7px;}</style><clipPath id="clip-path"><circle class="cls-1" cx="-276" cy="256" r="227"/></clipPath></defs><g id="Layer_5" data-name="Layer 5"><path class="cls-3" d="M257.7,447.37A37.85,37.85,0,0,1,230.58,436l-43-43.62a26.85,26.85,0,0,1-5-4L63.25,267.57C17.31,221,17,145,62.54,98.06a116,116,0,0,1,166.11-.7l27.11,27.47,26.88-27.7a116,116,0,0,1,166.11-.69C494.69,143,495,219,449.46,266L365.7,352.26a29.2,29.2,0,0,1-2.62,3.12L285,435.8a37.8,37.8,0,0,1-27.34,11.57Z"/><path class="cls-4" d="M366,65.28a112.38,112.38,0,0,1,80.22,33.61h0c44.49,45.09,44.8,119.17.69,164.62L363,350a27.18,27.18,0,0,1-2.45,2.95l-78.05,80.42a34.58,34.58,0,0,1-49.45.21l-43.34-43.92h0A23.49,23.49,0,0,1,185,386L65.74,265.11C21.25,220,20.94,146,65.05,100.49h0a112.54,112.54,0,0,1,161.11-.67l29.62,30,29.37-30.26A112.34,112.34,0,0,1,366,65.28m0-7A118.77,118.77,0,0,0,280.13,94.7l-24.39,25.12L231.14,94.9A119.53,119.53,0,0,0,60,95.62,125.56,125.56,0,0,0,60.76,270l119.3,120.88a30.63,30.63,0,0,0,5.27,4.25l42.76,43.33a41.59,41.59,0,0,0,59.46-.25l78.05-80.42a34.63,34.63,0,0,0,2.77-3.29L452,268.39A125.56,125.56,0,0,0,451.24,94,118.89,118.89,0,0,0,366,58.28Z"/><path class="cls-5" d="M123.54,122.44s42.5-13.5,70,14"/><path class="cls-5" d="M252,385.94h11.37a25.69,25.69,0,0,0,18.15-7.52L335,324.94"/></g></svg>