<svg xmlns="http://www.w3.org/2000/svg" xmlns:xlink="http://www.w3.org/1999/xlink" viewBox="0 0 512 512"><defs><style>.cls-1{fill:none;}.cls-2{fill:#d63854;}.cls-3{clip-path:url(#clip-path);}.cls-4{fill:url(#linear-gradient);}.cls-5{fill:#fff;}</style><clipPath id="clip-path"><circle class="cls-1" cx="256" cy="256" r="227"/></clipPath><linearGradient id="linear-gradient" x1="294.11" y1="249.89" x2="480" y2="435.77" gradientTransform="matrix(0.71, 0.57, -0.71, 0.57, 337.55, -90.27)" gradientUnits="userSpaceOnUse"><stop offset="0" stop-color="#560e1b"/><stop offset="1" stop-color="#d63854"/></linearGradient></defs><g id="Layer_4" data-name="Layer 4"><circle class="cls-2" cx="256" cy="256" r="227"/><g class="cls-3"><rect class="cls-4" x="221.91" y="218.94" width="293.83" height="211.32" transform="translate(-121.5 355.87) rotate(-45)"/></g><path class="cls-5" d="M402.57,150.21h0a85.49,85.49,0,0,0-122.39.52l-22.31,23-22.5-22.8a85.49,85.49,0,0,0-122.39.51h0c-33.51,34.53-33.28,90.81.53,125.06l90.62,91.82a17.72,17.72,0,0,0,3.57,2.78h0l51.79,52.48,78-80.36a21.65,21.65,0,0,0,1.86-2.24h0l63.76-65.7C436.61,240.74,436.38,184.46,402.57,150.21Z"/></g></svg>