<svg xmlns="http://www.w3.org/2000/svg" xmlns:xlink="http://www.w3.org/1999/xlink" viewBox="0 0 512 512"><defs><style>.cls-1{fill:none;}.cls-2{clip-path:url(#clip-path);}.cls-3{fill:#ffd4db;}.cls-4{fill:#d63854;}</style><clipPath id="clip-path"><circle class="cls-1" cx="-276" cy="-276" r="227"/></clipPath></defs><g id="Layer_8" data-name="Layer 8"><path class="cls-3" d="M428.25,113.57h0a101.91,101.91,0,0,0-145.87.61l-7.2,7.42a27.24,27.24,0,0,1-38.94.17L229,114.41A101.89,101.89,0,0,0,83.11,115h0c-39.94,41.15-39.66,108.22.63,149l108,109.44a21.38,21.38,0,0,0,4.25,3.31h0l44.15,44.73a24.44,24.44,0,0,0,35-.14l75.53-77.82a25.34,25.34,0,0,0,2.22-2.67h0l76-78.3C468.81,221.46,468.53,154.39,428.25,113.57Z"/><path class="cls-4" d="M444.47,96.75a128.79,128.79,0,0,0-184.39.78l-4.45,4.58-4.49-4.55a128.79,128.79,0,0,0-184.39.78C16.63,150,17,233.68,67.53,284.9L172.32,391.07a49.75,49.75,0,0,0,6.21,5.34l37.74,33.28c10.19,10.32,41.26,30,41.26,30s30.36-21.8,40.58-32.34l71.27-65.49c1.16-1.2,2.27-2.47,3.37-3.85l72.5-74.71C495.37,231.67,495,148,444.47,96.75ZM197.79,373.22a20.87,20.87,0,0,1-4.12-3.22L88.88,263.83c-39.08-39.6-39.35-104.67-.6-144.6h0a98.84,98.84,0,0,1,141.51-.59l26,26.36,25.79-26.58a99.13,99.13,0,0,1,28.85-20.67,101.66,101.66,0,0,1,49.8,27.82h0c40.28,40.82,40.56,107.89.62,149l-76,78.3a25.34,25.34,0,0,1-2.22,2.67L232,407.83Z"/><path class="cls-4" d="M106,166s15-30,56-28c0,0-25-17-41-7S102,153,106,166Z"/></g></svg>