<svg xmlns="http://www.w3.org/2000/svg" viewBox="0 0 512 512"><defs><style>.cls-1{fill:#d63854;}</style></defs><g id="Layer_10" data-name="Layer 10"><path class="cls-1" d="M48.89,234.58,226.07,126.77v84.41l-61.85,39.7,61.85,36.35v88.59L48.89,271.35Z"/><path class="cls-1" d="M402.41,238.23A59.68,59.68,0,0,1,426,247.88a73,73,0,0,1,18.38,18.38,89.91,89.91,0,0,1,12.12,25,98.49,98.49,0,0,1,4.39,29.63q0,21.6-8.36,39.05a83.79,83.79,0,0,1-23.61,29.63q-15.26,12.16-37.4,18.6t-49.72,6.43q-32.19,0-56.83-9a129.45,129.45,0,0,1-44.72-27.79l40.54-63.39a79.48,79.48,0,0,0,25.7,15.39q13.58,4.81,31.13,4.82,21.32,0,31.13-7.12t9.82-22.74q0-17.44-12.54-25t-40.95-7.58h-13V211.59h14.62q20.07,0,32.18-8.5t12.12-23.2q0-11-7.11-17.22t-20-6.2a50.34,50.34,0,0,0-27.37,8q-12.77,8-22.36,24.11L244,123.85a84.49,84.49,0,0,1,19-16.77A133.62,133.62,0,0,1,289,94a174.27,174.27,0,0,1,30.71-8.5,186,186,0,0,1,33.43-3,146.87,146.87,0,0,1,42.2,5.74q19.21,5.75,32.6,16.31a75.49,75.49,0,0,1,20.89,25.49,72.94,72.94,0,0,1,7.52,33.31,81.36,81.36,0,0,1-4.18,26.18,87,87,0,0,1-11.28,22.51,69.36,69.36,0,0,1-16.92,17A55.74,55.74,0,0,1,402.41,238.23Z"/></g></svg>