<svg xmlns="http://www.w3.org/2000/svg" viewBox="0 0 512 512"><defs><style>.cls-1{fill:#ff7d7d;}.cls-2{fill:#f24b4b;}.cls-3{fill:#ff4f4f;}.cls-4{fill:#ff5757;}.cls-5{fill:#ed1f1f;}.cls-6{fill:#d61818;}.cls-7{fill:#c91515;}.cls-8{fill:#f23535;}.cls-9{fill:#ed2b2b;}.cls-10{fill:#ff7a7a;}.cls-11{fill:#cf2727;}.cls-12{fill:#ba0505;}.cls-13{fill:#e01616;}.cls-14{fill:#b53535;}.cls-15{fill:#d10606;}.cls-16{fill:#9e0000;}.cls-17{fill:#ba1414;}.cls-18{fill:#bd1a1a;}.cls-19{fill:#ed0000;}.cls-20{fill:#a11010;}.cls-21{fill:#cf0000;}.cls-22{fill:#e80e0e;}.cls-23{fill:#f23030;}.cls-24{fill:#de1717;}.cls-25{fill:#ff8c8c;}.cls-26{fill:#ff2929;}.cls-27{fill:#8f0505;}.cls-28{fill:#a60000;}.cls-29{fill:#a61b1b;}.cls-30{fill:#f33;}.cls-31{fill:#db1d1d;}.cls-32{fill:#a80c0c;}.cls-33{fill:#8f0a0a;}.cls-34{fill:#a32e2e;}.cls-35{fill:#961f1f;}.cls-36{fill:#b51212;}.cls-37{fill:#c72626;}.cls-38{fill:#f23a3a;}.cls-39{fill:#ed1515;}.cls-40{fill:#cf3c3c;}.cls-41{fill:#d60000;}.cls-42{fill:#ff3838;}.cls-43{fill:#7d0404;}</style></defs><g id="Layer_2" data-name="Layer 2"><polygon class="cls-1" points="89.8 70.81 128.8 72.31 79.58 122.03 89.8 70.81"/><polygon class="cls-2" points="250.8 276.81 189.8 299.81 141.29 208.19 250.8 276.81"/><polygon class="cls-3" points="39.8 135.81 11.8 208.81 109.8 273.81 39.8 135.81"/><polygon class="cls-4" points="68.8 196.31 176.29 215.19 107.8 170.81 68.8 196.31"/><polygon class="cls-5" points="142.8 209.31 101.29 257.19 68.8 196.31 142.8 209.31"/><polygon class="cls-6" points="39.8 135.81 68.8 196.31 107.8 170.81 39.8 135.81"/><polygon class="cls-7" points="142.8 209.31 189.8 299.81 99.29 254.19 142.8 209.31"/><polygon class="cls-8" points="12.29 209.19 94.8 313.81 189.8 299.81 12.29 209.19"/><polygon class="cls-9" points="39.8 135.81 134.8 102.81 111.8 148.81 39.8 135.81"/><polygon class="cls-10" points="39.8 135.81 168.29 157.19 176.29 215.19 39.8 135.81"/><polygon class="cls-11" points="94.8 313.81 185.8 379.81 189.8 299.81 94.8 313.81"/><polygon class="cls-12" points="250.8 276.81 281.8 346.81 187.29 334.19 250.8 276.81"/><polyline class="cls-13" points="185.8 379.81 302.8 343.81 187.8 334.31 185.8 379.81"/><polygon class="cls-14" points="185.8 379.81 208.8 404.81 302.8 343.81 185.8 379.81"/><polygon class="cls-2" points="170.8 91.81 140.8 58.81 79.58 122.03 170.8 91.81"/><polygon class="cls-15" points="250.8 276.81 187.8 333.81 189.8 299.81 250.8 276.81"/><polygon class="cls-15" points="257.29 373.19 257.29 453.19 208.29 404.19 257.29 373.19"/><polygon class="cls-12" points="257.29 453.19 257.29 373.19 319.29 333.19 257.29 453.19"/><polygon class="cls-16" points="257.29 453.19 427.79 293.52 319.29 333.19 257.29 453.19"/><polygon class="cls-13" points="302.8 343.81 279.54 341.94 341.29 228.19 302.8 343.81"/><polygon class="cls-17" points="427.79 293.52 319.29 333.19 366.29 268.19 427.79 293.52"/><polygon class="cls-18" points="302.8 343.81 319.29 333.19 324.21 279.36 302.8 343.81"/><polygon class="cls-19" points="319.29 333.19 366.29 268.19 324.21 279.36 319.29 333.19"/><polygon class="cls-20" points="366.29 268.19 427.79 293.52 468.12 241.11 366.29 268.19"/><polygon class="cls-21" points="324.21 279.36 399.23 259.44 341.29 228.19 324.21 279.36"/><polygon class="cls-22" points="279.54 341.94 241.79 256.36 341.29 228.19 279.54 341.94"/><polygon class="cls-23" points="250.8 276.81 142.8 209.31 228.12 223.86 250.8 276.81"/><polygon class="cls-24" points="399.23 259.44 341.29 228.19 436.79 209.94 399.23 259.44"/><polygon class="cls-25" points="168.29 157.19 112.29 147.86 134.29 103.86 168.29 157.19"/><polygon class="cls-26" points="134.29 103.86 168.29 157.19 170.8 91.81 134.29 103.86"/><polygon class="cls-2" points="168.29 157.19 228.12 223.86 176.29 215.19 168.29 157.19"/><polygon class="cls-27" points="399.23 259.44 479.67 238.07 436.79 209.94 399.23 259.44"/><polygon class="cls-28" points="479.67 238.07 423.04 200.94 500.2 208.16 479.67 238.07"/><polygon class="cls-29" points="423.04 200.94 450.04 155.69 500.2 208.16 423.04 200.94"/><polygon class="cls-30" points="436.79 209.94 369.71 166.19 341.29 228.19 436.79 209.94"/><polygon class="cls-23" points="341.29 228.19 369.71 166.19 300.67 239.69 341.29 228.19"/><polygon class="cls-31" points="423.04 200.94 364.79 162.94 434.71 181.38 423.04 200.94"/><polygon class="cls-15" points="369.71 166.19 330.37 140.28 322.46 216.44 369.71 166.19"/><polygon class="cls-32" points="434.71 181.38 364.79 162.94 330.37 140.28 434.71 181.38"/><polygon class="cls-33" points="450.04 155.69 434.71 181.38 424.17 122.69 450.04 155.69"/><polygon class="cls-34" points="424.17 122.69 382.79 138.82 434.71 181.38 424.17 122.69"/><polygon class="cls-35" points="434.71 181.38 382.79 138.82 330.37 140.28 434.71 181.38"/><polygon class="cls-36" points="382.79 138.82 424.17 122.69 376.29 95.36 382.79 138.82"/><polyline class="cls-37" points="382.79 138.82 371.87 65.53 330.37 140.28"/><polygon class="cls-27" points="371.87 65.53 376.29 95.36 400.96 109.44 371.87 65.53"/><polygon class="cls-32" points="369.54 69.69 320.67 85.94 339.04 124.65 369.54 69.69"/><polygon class="cls-19" points="320.67 85.94 339.04 124.65 316.79 165.07 320.67 85.94"/><polygon class="cls-5" points="322.46 216.44 330.37 140.28 309.54 178.44 322.46 216.44"/><polygon class="cls-7" points="309.54 178.44 300.67 239.69 322.46 216.44 309.54 178.44"/><polygon class="cls-7" points="316.79 165.07 296.42 202.88 319.67 106.13 316.79 165.07"/><polygon class="cls-19" points="296.42 202.88 280.46 132.53 317.35 116.13 296.42 202.88"/><polygon class="cls-38" points="300.67 239.69 309.54 178.44 282.62 228.53 300.67 239.69"/><polygon class="cls-7" points="241.79 256.36 300.67 239.69 264.67 217.5 241.79 256.36"/><polygon class="cls-5" points="296.42 202.88 282.62 228.53 264.67 217.5 296.42 202.88"/><polygon class="cls-13" points="296.42 202.88 264.67 217.5 280.46 132.53 296.42 202.88"/><polygon class="cls-4" points="264.67 217.5 280.46 132.53 253.66 176.32 264.67 217.5"/><polygon class="cls-24" points="264.67 217.5 241.79 256.36 218.91 201.82 264.67 217.5"/><polygon class="cls-5" points="168.29 157.19 228.12 223.86 199.04 154.32 168.29 157.19"/><polygon class="cls-39" points="253.66 176.32 264.67 217.5 218.91 201.82 253.66 176.32"/><polygon class="cls-7" points="253.66 176.32 218.91 201.82 199.04 154.32 253.66 176.32"/><polygon class="cls-40" points="199.04 154.32 253.66 176.32 219.96 122.86 199.04 154.32"/><polygon class="cls-4" points="170.8 91.81 219.96 122.86 199.04 154.32 170.8 91.81"/><polygon class="cls-41" points="170.8 91.81 199.04 154.32 168.29 157.19 170.8 91.81"/><polygon class="cls-42" points="79.58 122.03 84.42 98.19 52.04 131.63 79.58 122.03"/><polygon class="cls-43" points="450.04 155.69 424.17 122.69 476.51 152.44 450.04 155.69"/><polygon class="cls-27" points="450.04 155.69 500.2 208.16 476.51 152.44 450.04 155.69"/><polygon class="cls-20" points="400.96 109.44 458.57 142.32 429.67 95.57 400.96 109.44"/><polygon class="cls-16" points="429.67 95.57 400.96 109.44 386.92 88.19 429.67 95.57"/></g></svg>