<svg xmlns="http://www.w3.org/2000/svg" xmlns:xlink="http://www.w3.org/1999/xlink" viewBox="0 0 448 448"><defs><style>.a,.e,.i{fill:none;}.b,.d{fill:#fff;}.c{clip-path:url(#a);}.d,.f,.i{stroke:#000;}.d{stroke-linejoin:round;stroke-width:10px;}.e{stroke:#a1a1a1;}.e,.f,.i{stroke-miterlimit:10;}.g{fill:#787878;}.h{fill:url(#b);}.i{stroke-width:3px;}.j{fill:#ededed;}.k{fill:#ccc;}.l{fill:#dedede;}.m{fill:#d6d6d6;}.n{fill:#cfcfcf;}</style><clipPath id="a"><rect class="a" x="1" width="448" height="448"/></clipPath><linearGradient id="b" x1="52.05" y1="180.59" x2="253.63" y2="296.98" gradientUnits="userSpaceOnUse"><stop offset="0" stop-color="#c2006e"/><stop offset="0.23" stop-color="#b70055"/><stop offset="0.48" stop-color="#af0041"/><stop offset="0.74" stop-color="#aa0036"/><stop offset="1" stop-color="#a80032"/></linearGradient></defs><title>alexis.bwr</title><rect class="b" width="448" height="448"/><g class="c"><path class="d" d="M359.58,385l-77.71-30c.52,1,.8-39.94.8-39.94h0l3.65-2.94a95.47,95.47,0,0,0,23.33-27.77,1.63,1.63,0,0,1,.11-.17,86.13,86.13,0,0,0,8.65-20.91c.14-.47.27-.94.4-1.41,1.05-3.83,1.88-7.51,2.63-10.9l2-8.52h0l1.65-7a.77.77,0,0,1,1.22-.44l4.9,3.76a14.37,14.37,0,0,0,8.75,3h1.23a6.75,6.75,0,0,0,6.41-4.62l9.85-29.45a32.62,32.62,0,0,0-.23-21.35,13.28,13.28,0,0,0-7.52-7.8l-1.12-.49c7.74-38.35,6.74-83.69-21.26-112.69a45.48,45.48,0,0,0-10.81-8.78c-2.79-25.63-33.81-46.24-76.23-46.65C144,9,99.11,77.11,84.9,135.72,69.73,198.3,82,252.24,94,298.5c11.11,42.8,16.5,41,21.39,77.92L86.85,386.5c0,1-13.36,2-13.35,3-31.23,7-82.49,38-93.34,71.51-17.7,54.58-24.1,182.69-24.1,182.69L98.52,655.28l1-12.08H353.76l1,12.08L497,646.65s-12.29-127.37-30-182C467,464.69,466.26,424.86,359.58,385Zm-218.07,12-2.75,1c1.36-2,2.73-4.08,4.1-6.3Q142.2,394.43,141.51,397.06Zm38.38-13.31-11.57,4A220.15,220.15,0,0,0,179.89,367Z"/><path d="M246.42,146.2s-78.3,5.58-84.76,58.05c-4.83,39.17,16.18,81.52,28,138.64,13.75,66.5-68,122.45-68,122.45S166.49,344.46,138.27,313,84.11,211.07,97.5,155.64c12.55-51.93,65.83-105.75,148.92-96.3S340.51,150.92,246.42,146.2Z"/><path d="M64.25,387.58,230.86,335.4l146.52,51.81c-.33,50.67-2.82,97,27.66,142.73v113.6H52.45V532.89C74.65,490,65.1,444,64.25,387.58Z"/><path class="b" d="M231.28,388.17c-21.15,0-40.42-7.59-52.86-20.81l-1-1.1V272H285.17v94.2l-.66.72C272.09,380.44,252.69,388.17,231.28,388.17Z"/><path d="M282.67,274.53v90.74h0c-12.52,13.59-32,20.4-51.39,20.4-19.23,0-38.47-6.67-51-20l-.36-.37V274.53H282.67m5-5H174.89v97.72l1.36,1.44.35.38c12.91,13.72,32.84,21.6,54.68,21.6,22.11,0,42.18-8,55.07-22l1.32-1.43V269.53Z"/><polygon class="b" points="148.18 168.71 131.21 157.68 114.23 157.68 107.25 177.15 122.22 221.93 133.2 221.93 148.18 210.43 148.18 168.71"/><path class="b" d="M186.08,322.16l-25.15-19a34.33,34.33,0,0,1-13-21.62l-12.47-72.8a36.33,36.33,0,0,1-.52-6.16V98.65c0-14.54,8.77-27.48,21.82-32.2l46-16.66a30.93,30.93,0,0,1,10.5-1.85H278.6l1.69-.22c3.85-.62,36.58,1.77,51.8,26.62,9.54,15.57,6.09,70.81,2.91,104.49l1.89-1.23a.8.8,0,0,1,.42-.13h7.36a13.35,13.35,0,0,1,12.56,8.84h0a32.62,32.62,0,0,1,.23,21.35l-9.85,29.45a6.75,6.75,0,0,1-6.41,4.62H340a14.37,14.37,0,0,1-8.75-3l-4.9-3.76a.77.77,0,0,0-1.22.44l-5.42,23.08a97.42,97.42,0,0,1-33.36,53.64l-11.63,9.38S244.47,345.58,186.08,322.16Z"/><path d="M195.8,175.14s-29.42-23.64-66.3-3.47l-.15-.78s36.2-33.37,66.54-6.26Z"/><path d="M252.69,174.27s41.19-29.36,65.23,2.93l4.92-.45s-24.06-32.73-68.08-15.6Z"/><path class="e" d="M270.09,270.22s6.89-.28,5.93,5.24C276,275.46,278.59,266.64,270.09,270.22Z"/><path class="f" d="M129.65,309.32s33.44,51.63,20.66,98.84a383.33,383.33,0,0,1-34.43,84.09s46.72-59,46.23-99.83S129.65,309.32,129.65,309.32Z"/><path d="M101.53,504a266.74,266.74,0,0,0,14.24-50c5.44-29.52,8.4-74-8.37-118.08-10.73-28.21-43.95-126-21.06-199.8,18.93-61.07,52-123.64,154-124.77h1.44c44.16,0,67.58,22.08,74.22,41,4.13,11.76,2,22.86-5.66,29L308.24,83l2.49.92c2.1.77,5.59,2.47,5.33,5.08-.51,5.09-15.38,15.9-67.9,24.14-89,14-103.43,66.58-104.07,96.7v.1l0,.1c2,17.41,6.9,37.43,12.05,58.63,8.12,33.47,17.34,71.41,16.26,105a187,187,0,0,1-2.25,23.74l0,.11v.11c-.06,3.12,0,6,0,8.54l-.57-4.39-1.89,8a156,156,0,0,1-23.23,52.79l-.1.16-.07.17a36.11,36.11,0,0,0-2.18,10.69l-1.25-4.31-1.38,5.24c-3,11.52-4.44,20.7-4.2,27.4-2.72-4.27-6.07-10.68-6.32-16.7l-.13-3.41-2.42,2.41A137.35,137.35,0,0,1,101.53,504Z"/><path d="M241.75,12.89c19.22,0,36.43,4.45,49.77,12.86,11.19,7,19.37,16.68,23,27.12,3.91,11.14,1.92,21.59-5.19,27.29l-4.14,3.31,5,1.84c2.8,1,4.47,2.39,4.36,3.53-.05.45-.83,4.54-14.5,10.1-11.86,4.82-29.89,9.22-52.14,12.71-90.13,14.15-104.69,67.56-105.34,98.14V210l0,.21c2,17.49,6.92,37.56,12.08,58.8,8.1,33.38,17.29,71.21,16.22,104.63a186.14,186.14,0,0,1-2.23,23.56l0,.21v.21c0,.63,0,1.24,0,1.85l-2.36,10a154.45,154.45,0,0,1-23,52.28L143,462l-.13.35a36.93,36.93,0,0,0-1.27,4.16l-.84-2.87-2.75,10.46a125.52,125.52,0,0,0-4.12,22.4,28.8,28.8,0,0,1-3.45-11.37l-.28-6.81-4.83,4.8a140.3,140.3,0,0,1-20.74,17.09,271.37,271.37,0,0,0,12.62-45.93c5.47-29.71,8.45-74.46-8.45-118.89C98.12,307.34,65,210,87.77,136.61,106.54,76.06,139.35,14,240.33,12.9h1.42m0-3h-1.46C135.06,11.06,102.77,78.11,84.9,135.72,65.23,199.16,86.08,284.13,106,336.5c32.23,84.75-7.57,171-7.57,171s13.48-6.72,29.05-22.21c.44,10.82,10.17,22.51,10.17,22.51-2.4-8.21.64-22.76,3.3-32.89a50.39,50.39,0,0,0,3.81,9.23,34,34,0,0,1,1-20.71,157.34,157.34,0,0,0,23.45-53.29c1.48,11.42,11.63,28.26,11.63,28.26a99.52,99.52,0,0,1-7.87-20.16c-1.23-5-1.41-13.42-1.29-20.57a188.75,188.75,0,0,0,2.27-23.93c1.75-54.69-23-118.49-28.32-163.88.59-27.54,13.55-81.24,102.8-95.25C316.25,104,326.88,88.28,311.25,82.5c22.39-17.93-.44-72.61-69.5-72.61Z"/><path class="g" d="M349.71,178.51c-5-1.56-8.79-.74-12.66-.43,0,0-1.84-33.65-6.29-36.2S309.88,124,309.88,124h0c-25.2-21.85-5.17-51.23,6.63-67.47,0,0,38.84,22.75,36.48,85.12Z"/><polygon points="251.13 163.58 249.07 176.7 247.16 177.67 249.31 164.7 251.13 163.58"/><polygon points="199.15 168.22 200.53 169.61 200.16 180.3 198.87 178.55 199.15 168.22"/><path d="M192.26,277.4c-.54,0,7-6.88,27.91-5.9,6.87.32,18.19,3.69,29.62,5.53,7.76,1.25,17.71-1.29,21.76-2.58,0,0-12.9,19.55-47.57,17C209.22,290.32,192.26,277.4,192.26,277.4Z"/><path d="M252,198.85l.11-.22c7.16-14.46,17.94-21.78,32-21.78,15.76,0,30.17,9.5,30.31,9.6l.69.46-9.54,5.23,8.58,7.74-2.51-1c-12-4.6-22.63-6.94-31.57-6.94-19.64,0-24.75,11.36-24.8,11.48l-.41,1Z"/><path class="b" d="M284.14,177.35c15.79,0,30,9.51,30,9.51L304.75,192l7.1,6.41c-13.38-5.13-23.75-7-31.75-7-20.24,0-25.26,11.78-25.26,11.78l-2.29-4.41c8.24-16.65,20.31-21.51,31.59-21.5m0-1h0c-14.31,0-25.24,7.42-32.49,22.05l-.22.46.23.45,2.3,4.41,1,1.88.83-1.95c.2-.45,5.07-11.17,24.34-11.17,8.88,0,19.45,2.32,31.39,6.9l5,1.92-4-3.59-6.06-5.47,8.19-4.5,1.45-.79-1.37-.92c-.59-.39-14.68-9.68-30.59-9.68Z"/><path class="h" d="M101.53,504a266.74,266.74,0,0,0,14.24-50c5.44-29.52,8.4-74-8.37-118.08-10.73-28.21-43.95-126-21.06-199.8,18.93-61.07,52-123.64,154-124.77h1.44c43.78,0,70.94,23,75.61,46a15.06,15.06,0,0,0-2,2c-5.52,6.21-19.87,27.45-18.93,42.55-11.92,4.27-28.13,8-48.23,11.19-89,14-103.43,66.58-104.07,96.7v.1l0,.1c2,17.41,6.9,37.43,12.05,58.63,8.12,33.47,17.34,71.41,16.26,105a187,187,0,0,1-2.25,23.74l0,.11v.11c-.06,3.12,0,6,0,8.54l-.57-4.39-1.89,8a156,156,0,0,1-23.23,52.79l-.1.16-.07.17a36.11,36.11,0,0,0-2.18,10.69l-1.25-4.31-1.38,5.24c-3,11.52-4.44,20.7-4.2,27.4-2.72-4.27-6.07-10.68-6.32-16.7l-.13-3.41-2.42,2.41A137.35,137.35,0,0,1,101.53,504Z"/><path d="M241.75,12.89h0c21.13,0,39.6,5.31,53.43,15.34,10.73,7.77,18.11,18.1,20.52,28.6-.45.42-.95.94-1.51,1.57-5.49,6.19-19.54,27-19.34,42.5-11.73,4.08-27.5,7.7-46.92,10.75-90.13,14.15-104.69,67.56-105.34,98.14V210l0,.21c2,17.49,6.92,37.56,12.08,58.8,8.1,33.38,17.29,71.21,16.22,104.63a186.14,186.14,0,0,1-2.23,23.56l0,.21v.21c0,.63,0,1.24,0,1.85l-2.36,10a154.45,154.45,0,0,1-23,52.28L143,462l-.13.35a36.93,36.93,0,0,0-1.27,4.16l-.84-2.87-2.75,10.46a124.71,124.71,0,0,0-4.12,22.41,28.74,28.74,0,0,1-3.45-11.38l-.28-6.81-4.83,4.8a140.3,140.3,0,0,1-20.74,17.09,271.37,271.37,0,0,0,12.62-45.93c5.47-29.71,8.45-74.46-8.45-118.89C98.12,307.34,65,210,87.77,136.61,106.54,76.06,139.35,14,240.33,12.9h1.42m0-3h-1.46C135.06,11.06,102.77,78.11,84.9,135.72,65.23,199.16,86.08,284.13,106,336.5c32.23,84.75-7.57,171-7.57,171s13.48-6.72,29.05-22.21c.44,10.82,10.17,22.51,10.17,22.51-2.4-8.21.64-22.76,3.3-32.89a50.39,50.39,0,0,0,3.81,9.23,34,34,0,0,1,1-20.71,157.34,157.34,0,0,0,23.45-53.29c1.48,11.42,11.63,28.26,11.63,28.26a99.52,99.52,0,0,1-7.87-20.16c-1.23-5-1.41-13.42-1.29-20.57a188.75,188.75,0,0,0,2.27-23.93c1.75-54.69-23-118.49-28.32-163.88.59-27.54,13.55-81.24,102.8-95.25C270.79,111.1,287,107,298,103c-2-16.84,18.63-44.72,20.95-44.72a.2.2,0,0,1,.11,0c-3.77-22.09-29.42-48.37-77.3-48.38Z"/><path d="M139.87,195.73l-10.19-4.17L131,190.5c.66-.55,16.36-13.41,34.3-13.41,12.46,0,22.78,6.21,30.69,18.46l.33.51-3.88,6.81-.86-1.54c-.21-.35-5.16-8.64-20.28-8.64-9.93,0-21.9,3.6-35.58,10.71l-4.76,2.48Z"/><path class="b" d="M165.26,178.09c10.2,0,21,4.34,29.85,18l-2.7,4.75s-5.2-9.15-21.15-9.15c-8.6,0-20.32,2.65-36,10.82l6.33-7.17-10-4.07s15.88-13.18,33.66-13.18m0-2c-18.29,0-34.26,13.08-34.93,13.64l-2.57,2.12,3.09,1.27,7.34,3-4.47,5.07-7.11,8.05,9.53-5c13.53-7,25.35-10.6,35.12-10.6,14.46,0,19.22,7.82,19.41,8.15l1.76,3,1.71-3,2.71-4.75.6-1.05-.66-1c-8.1-12.55-18.71-18.92-31.53-18.92Z"/><path d="M218.42,217.6s-5.17,15.49-3.69,21.39,2.21,5.17,5.16,6.64S215.47,241.21,218.42,217.6Z"/><path class="i" d="M284.07,316.8s-52,34-105.67,2.49"/><ellipse class="j" cx="252.5" cy="241.75" rx="2.5" ry="3"/><ellipse class="k" cx="270.75" cy="232.25" rx="2" ry="2.5"/><ellipse class="l" cx="280.25" cy="241.75" rx="2" ry="1.88"/><ellipse class="m" cx="292.25" cy="232.75" rx="3.38" ry="2"/><ellipse class="k" cx="169.75" cy="231.25" rx="1.88" ry="1.13"/><ellipse class="n" cx="161.13" cy="239.75" rx="2.38" ry="2"/><ellipse class="l" cx="189.13" cy="231" rx="2.38" ry="2.75"/></g></svg>