<svg xmlns="http://www.w3.org/2000/svg" xmlns:xlink="http://www.w3.org/1999/xlink" viewBox="0 0 1735 2042.3"><defs><style>.cls-1,.cls-16,.cls-17,.cls-19,.cls-30,.cls-32{fill:none;}.cls-2{opacity:0.3;}.cls-3{fill:#3274f9;}.cls-4{fill:#ab37ff;}.cls-18,.cls-20,.cls-29,.cls-5{fill:#9e2434;}.cls-19,.cls-20,.cls-29,.cls-30,.cls-5{stroke:#360c12;}.cls-16,.cls-20,.cls-29,.cls-30,.cls-37,.cls-5{stroke-linejoin:round;}.cls-19,.cls-20,.cls-30,.cls-5{stroke-width:6px;}.cls-21,.cls-22,.cls-33,.cls-6{fill:#fdc1aa;}.cls-21,.cls-25,.cls-31,.cls-6{stroke:#1f1714;}.cls-11,.cls-16,.cls-17,.cls-19,.cls-20,.cls-30,.cls-33,.cls-37,.cls-38,.cls-6,.cls-8,.cls-9{stroke-linecap:round;}.cls-10,.cls-11,.cls-17,.cls-19,.cls-21,.cls-23,.cls-24,.cls-25,.cls-31,.cls-32,.cls-33,.cls-38,.cls-6,.cls-7,.cls-8,.cls-9{stroke-miterlimit:10;}.cls-10,.cls-11,.cls-21,.cls-37,.cls-38,.cls-6,.cls-7,.cls-8,.cls-9{stroke-width:7px;}.cls-34,.cls-7,.cls-8{fill:#374047;}.cls-7,.cls-8{stroke:#02090f;}.cls-9{fill:#dfc9f5;}.cls-10,.cls-11,.cls-9{stroke:#250b36;}.cls-10,.cls-11{fill:#411561;}.cls-12{clip-path:url(#clip-path);}.cls-13{fill:#d13045;}.cls-14{fill:#450b15;}.cls-15{font-size:50.52px;fill:#af71ec;font-family:LucidaConsole, Lucida Console;}.cls-16{stroke:#5e97de;stroke-width:5px;}.cls-17,.cls-33{stroke:#a37d6d;}.cls-17,.cls-29,.cls-31,.cls-33{stroke-width:4px;}.cls-23,.cls-25,.cls-27{fill:#1f1714;}.cls-23,.cls-32{stroke:#000;}.cls-23,.cls-25,.cls-32{stroke-width:3px;}.cls-24{fill:#1a1a1a;stroke:#1a1a1a;stroke-width:2px;}.cls-26,.cls-31{fill:#fff;}.cls-28{fill:#85a4b5;}.cls-35,.cls-38{fill:#dfe7ed;}.cls-36{fill:#333;}.cls-37{fill:#666;}.cls-37,.cls-38{stroke:#333;}</style><clipPath id="clip-path"><path class="cls-1" d="M957.18,996.46h0c-5.69-5.59-15.43-5.05-21.64,1.18l-1.12,1.13a4.14,4.14,0,0,1-5.78.31l-1-1c-5.69-5.59-12.45-4.27-18.66-1.18h0c-6.27,3.42-9,16.45-3.28,22l21.45,23.37a3.73,3.73,0,0,0,5.2-.28l11.74-11.8a3.34,3.34,0,0,0,.35-.4h0L956.23,1018C962.44,1011.72,962.87,1002.05,957.18,996.46Z"/></clipPath></defs><g id="Layer_4" data-name="Layer 4"><g class="cls-2"><path class="cls-3" d="M1566.13,1185.37a663.27,663.27,0,0,0,53.28-261.27c0-252.24-140.35-471.68-347.21-584.54a275.21,275.21,0,0,0,1.57-29.16c0-149.33-121.07-270.4-270.41-270.4-144.57,0-262.63,113.46-270,256.19-259,91-444.77,337.76-444.77,627.91a670.84,670.84,0,0,0,7,96.43C152.15,1119.33,58.13,1284.66,58.13,1472c0,302.57,245.28,547.86,547.86,547.86,163,0,309.42-71.25,409.78-184.28a435.53,435.53,0,0,0,199.21,47.9c241.54,0,437.35-195.8,437.35-437.34A435.35,435.35,0,0,0,1566.13,1185.37Z"/></g><path class="cls-4" d="M1554.13,1173.37a663.27,663.27,0,0,0,53.28-261.27c0-252.24-140.35-471.68-347.21-584.54a275.21,275.21,0,0,0,1.57-29.16C1261.77,149.07,1140.7,28,991.36,28c-144.57,0-262.63,113.46-270,256.19-259,91-444.77,337.76-444.77,627.91a670.84,670.84,0,0,0,7,96.43C140.15,1107.33,46.13,1272.66,46.13,1460c0,302.57,245.28,547.86,547.86,547.86,163,0,309.42-71.25,409.78-184.28a435.53,435.53,0,0,0,199.21,47.9c241.54,0,437.35-195.8,437.35-437.34A435.35,435.35,0,0,0,1554.13,1173.37Z"/></g><g id="Layer_1" data-name="Layer 1"><path id="Hair_Back" data-name="Hair Back" class="cls-5" d="M1097.56,356.56s-18.66-130.66-88-123.46c-67.85,7.05-187.54,120.2-247.34,129.17a2,2,0,0,0-1.12,3.36c5.49,5.54,19.32,16.9,39.6,15.81a2,2,0,0,1,1.49,3.45c-16,14.8-64.88,69.2-48.23,168.06,19.8,117.55,29.1,183.83,29.1,212.95,0,21.49-1.13,39.82-14.1,55s-20.7,21.46-20.7,21.46c8.77,2.28,34.65,2.77,44.05-9.57,0,0-29.65,51.77,0,97.67s81.31,10,83.1,46.93,115.2-52.2,115.2-52.2,119.86-38.7,118.88-96.3c-.79-46.51-15.61-96.54-21.29-114.08a2,2,0,0,1,3-2.26,55.66,55.66,0,0,0,24.34,8.94,2,2,0,0,0,2.21-2.42c-3.09-13.92-30.67-72.58-4.77-133.17C1182.1,424.51,1097.56,356.56,1097.56,356.56Z"/><path id="Back_Right_Arm" data-name="Back Right Arm" class="cls-6" d="M836.92,874.75,803.1,930.6l-10.8,175s-70.38,69.82-69.08,85.13c3.08,36.26,36.32,62.06,36.32,62.06,19.24,16.21,56,13.5,69.16,0,33.85-38.89,59.87-65.38,68.91-93.29S914.7,943.2,914.7,943.2Z"/><g id="Legs_Back" data-name="Legs Back"><path class="cls-7" d="M860.25,1381.6c159.74-5.52,297-18.1,426.33-40.6l6.7,184.45L1193,1594.28l-335.5,25.23L796.3,1464.3Z"/><path class="cls-8" d="M873.06,1465.2c-49.32-65.86-114.86-77.32-337.76-161.4-51.62-19.47-120.21-40.56-194.4-32.4-9.48,1-43.2,12.6-66.6,53.4,0,0-16.8,60.6,49.8,161.4,22,33.36,158.7,168.6,338.1,195l285.9-106.8"/><path class="cls-8" d="M435.1,1350c57.58,36.65,98.35,50.78,130.8,76.8C691.43,1527.43,714,1554.29,709,1561.2"/><path class="cls-6" d="M712.07,1566.13l24.62,14.28a10.78,10.78,0,0,1,1.43,17.64l-69.55,57.23a10.75,10.75,0,0,1-7,2.45l-46.89-.83a10.77,10.77,0,0,1-7.28-18.53c22.1-21.31,60.75-55.91,94.49-72.56A10.8,10.8,0,0,1,712.07,1566.13Z"/><path class="cls-9" d="M720.21,1572.08,656.62,1627a8.74,8.74,0,0,0-.84,12.37l11.49,13a8.57,8.57,0,0,0,11.05,1.56l78.58-50.21a8.72,8.72,0,0,0,.89-14L736.63,1572A12.66,12.66,0,0,0,720.21,1572.08Z"/></g><g id="Shirt"><path class="cls-10" d="M837.13,875.39C881.66,863.61,921,851,954.48,841c5.8-1.73,10.49,19.9,38.62,39.8,5.38,3.8,27.86,3.43,49.8-16.8,46.2-42.6,36.56-59.62,45-61.86,38.77-10.28,76.82-3.89,117,5.4,41.87,8.55,43.8,14.46,48.6,49.86-16.3,130.11-17.1,280-7.2,309,12.35,61.84,38.22,155.8,71.35,191.4-267.47,42.93-351.3,77.3-480.48,50.87-4.59-.94-8.9-5.34-7.5-9.81,21.83-69.86,52.16-134.9,67.89-232.8,1.19-7.37-1.73-14.83-5.52-21.27-25.47-12.11-44.48-37.93-46-79.64l11.29-88.46Z"/><path class="cls-11" d="M846,1065.15s.4,42.42,27.94,67.63,62.14,17.11,62.14,17.11"/><g class="cls-12"><path class="cls-13" d="M929.86,1059.17c-7.24,0-11.77-4.45-13.7-6.35l-.34-.34-21.07-21.77a29.12,29.12,0,0,1-8.65-20.55,30.13,30.13,0,0,1,9-21.47,32.31,32.31,0,0,1,22.7-9.52,29.32,29.32,0,0,1,13.07,3,32.74,32.74,0,0,1,17-4.86,28.23,28.23,0,0,1,19.8,7.8l1.54,1.45a28.57,28.57,0,0,1,8.5,20.37,31.84,31.84,0,0,1-9.32,22.42L957.68,1040l-.34.38c-.35.42-.72.82-1.1,1.21s-.53.52-.82.76l-14.23,12.35a16.65,16.65,0,0,1-11.33,4.45Z"/><path class="cls-14" d="M947.87,992.32A13.27,13.27,0,0,1,957.3,996l1.4,1.32c5.69,5.59,5.27,15.26-.94,21.49l-10.94,10.9-.88,1a4.23,4.23,0,0,1-.34.4l-14.47,12.55a1.77,1.77,0,0,1-1.27.58c-1.12,0-2.27-1.15-3.26-2.12l-21.18-21.89c-5.69-5.58-5.92-14.65.29-20.88h0a17.15,17.15,0,0,1,12.07-5.11,13.75,13.75,0,0,1,9.74,3.81l1.07.75a4.09,4.09,0,0,0,2.86,1.21,3.78,3.78,0,0,0,2.7-1.15l1.12-1.13a18.05,18.05,0,0,1,12.6-5.34m0-30A47.44,47.44,0,0,0,930,965.85a44.9,44.9,0,0,0-12.25-1.68,47.41,47.41,0,0,0-33.33,13.94,44.94,44.94,0,0,0-13.35,32.13,44,44,0,0,0,13,31l21,21.68.54.54.07.07c2.68,2.64,10.84,10.65,24.21,10.65a31.59,31.59,0,0,0,21.32-8.25l14.07-12.22c.55-.47,1.09-1,1.6-1.49s1.18-1.23,1.74-1.88l10.34-10.3.09-.09a46.87,46.87,0,0,0,13.69-33.09,43.42,43.42,0,0,0-13-31l-.46-.44L978,974.27a43.11,43.11,0,0,0-30.15-11.95Z"/></g><text class="cls-15" transform="matrix(1.06, -0.13, -0.19, 0.98, 967.2, 1038.03)">&amp;</text><path class="cls-16" d="M1030.66,997l-16.08,17.64a2.79,2.79,0,0,0-.57,2.86l9.68,16.1"/><path class="cls-16" d="M1053.92,1029.27l16.09-17.63a2.8,2.8,0,0,0,.56-2.87l-9.68-16.09"/><line class="cls-16" x1="1034.04" y1="1029.68" x2="1053.72" y2="994.71"/></g><g id="Front_Right_Arm" data-name="Front Right Arm"><path class="cls-6" d="M723.22,1190.74s-8.67-39.61,11-118.84c16.39-66.09,49.94-145,72.08-194.16,1.49-3,12.67-5.34,21.52-47,9.33-59.1,63.26,6.89,63.26,6.89C867.5,1011.07,848,1088.07,836,1113.3"/><path class="cls-6" d="M805.2,880.16S819,863.7,819,849.66c0-66.49,8.68-108.51,13.73-118s29.77,1.8,34.82,6.86l46.92,28.54a1.82,1.82,0,0,1,.86,1.75l-9.52,84.35"/><path class="cls-17" d="M843.69,832.8s-3.15-12.75,3.22-20.78"/></g><path id="Left_Arm" data-name="Left Arm" class="cls-6" d="M1166.21,874.29S1109,976.5,1102.88,1103.4c-7.41,39.64-15.37,35.26-34.42,74.7-48.24,99.9-56.94,192.72-95.76,251.1C958,1451.37,910,1524.28,920,1527.73l84.14,29.1c9,3.13,75.87-27,79.52-35.84,0,0,56.53-162.62,91.11-262.79,11.23-32.52,10.35-58,19.35-73.8,70.72-123.76,63.62-157.17,67.5-166.48,19.54-46.89,21.45-77.51,21.9-80.12,7.65-44.55-8.63-99.94-38.09-112.4-7.54-3.18-18-6.76-18-6.76C1195.51,824.83,1178.81,849.06,1166.21,874.29Z"/><g id="Hair_Cover_Hand" data-name="Hair Cover Hand"><path class="cls-18" d="M801.92,755.77s64.58,59,45.68,112.5c-9.8,27.78,85.95-49.72,85.95-49.72V746.1L815.87,700.2Z"/><path class="cls-19" d="M801.92,755.77S857.2,810.3,851.47,852"/></g><path id="Hair_Shoulder" data-name="Hair Shoulder" class="cls-20" d="M871.9,802.14c-23.4,29.46-36.73,119.2-21,157.56,18.23,44.44,19.42,79.31,18.33,97a2,2,0,0,0,3.82.95c9.34-20.87,28.23-64.21,34-85.61,0,0,5.07,9.64,6.46,17.49a2,2,0,0,0,3.7.69c7.85-13.55,24-48,12.34-86.58-15-49.81,33.73-63.4,33.73-63.4l3.15-19.1"/><g id="Head_Shape" data-name="Head Shape"><path id="Neck" class="cls-21" d="M1069.93,691.35s-12.4,53.43-11.47,78.38c.8,21.14,8.64,30.78,11.89,34.53,2.67,3.09,5.92,3,9.3,3.19,1.57.1,3.9,2.25,3.08,4.14-6.56,15.11-24.23,59-78.53,75.36-13.17,4-42.45-16.65-44.29-41.14,2.48-4.46,4.73-4.16,5.42-6.45,1.95-6.46-.14-30.81,3.1-47.12,5.13-25.88-2-57.84-2-57.84"/><path id="Face" class="cls-21" d="M1138.82,594.9C1075.9,685.8,1002,814,922.3,767.8,781,685.8,851.2,599.4,843,473.06c-8.07-124.7,126.29-164.35,213.06-133.4S1204.23,500.42,1138.82,594.9Z"/><path id="Ear" class="cls-6" d="M1111.34,565.14c19.19-29.19,49.72-43,68.19-30.87s17.88,45.65-1.31,74.84-51.47,42.79-76.82,24.64"/><path class="cls-22" d="M1071.7,670.9s-10.12,39.65-12.54,56.75c-1.54,10.84-63,46.8-63,46.8s54.15-44.92,33.55-42.3C1003,735.55,1071.7,670.9,1071.7,670.9Z"/></g><path id="Hair_Shaved" data-name="Hair Shaved" class="cls-23" d="M1167.7,526.26c13.49-146.1-70.79-171.69-70.79-171.69l-54.39,43.83S1105,455,1097,563.7c-.69,9.37,12.52,12.86,17.71,5,7.22-10.89,14.2-18.94,24-29.17C1138.75,539.55,1152.17,528.85,1167.7,526.26Z"/><path id="Eyebrow" class="cls-24" d="M964.6,435.63c-5.35-3.81-2.12-6.14,7.33-7.4.44-.44,2-.43,3.21,0,22.1,3,39.56,9.66,53.33,19.24,2.25.81,1.31,2-1.19,1.48-17.78-7.72-35.7-11.63-60.67-11.84C965.13,436.84,964.14,436.1,964.6,435.63Z"/><g id="Eyes"><g id="Left_Eye" data-name="Left Eye"><path class="cls-25" d="M848.5,561.55s-5.94-4.2-9.84-3.15,9.84-12.76,9.84-12.76Z"/><path class="cls-26" d="M910.82,552.78c2,25.93-13.29,46-31.62,46s-30.7-22.58-30.7-48.59c0-23.94,19.24-45.43,33.5-45.43C897.1,504.77,908.56,523.53,910.82,552.78Z"/><path class="cls-27" d="M879.2,600.79c-18.64,0-32.7-21.75-32.7-50.59,0-25.1,19.85-47.43,35.5-47.43,16.24,0,27.79,18.72,30.12,48.85h0c1.18,15.26-3.31,30-12,39.37C894.27,597.31,886.84,600.79,879.2,600.79Zm2.8-94c-12.44,0-31.5,19.45-31.5,43.43,0,26.13,12.61,48.59,28.7,48.59,6.61,0,14.32-3.94,19.48-9.52,7.94-8.58,12.65-21.5,11.55-35.67l.08-.56C908.15,525.18,896,506.77,882,506.77Z"/><ellipse class="cls-28" cx="882" cy="552.95" rx="16.91" ry="27.65" transform="translate(-56.58 102.67) rotate(-6.46)"/><ellipse cx="882.99" cy="553.04" rx="10.95" ry="17.9" transform="translate(-56.58 102.79) rotate(-6.46)"/></g><g id="Right_Eye" data-name="Right Eye"><path class="cls-25" d="M983.77,477.38l43.39,30.35s3.51-18.35,11.91-21.78a1,1,0,0,0,.2-1.78c-3.86-2.42-10.57-5.62-16.62-4.68,0,0,12.51-2.93,21.75-4.43a1,1,0,0,0,0-2A124.47,124.47,0,0,0,983.77,477.38Z"/><path class="cls-26" d="M1029.24,518.34c3.73,29.84-8.82,56.73-27.07,59s-36-19.1-39.71-48.94,8.64-50,26.89-52.31S1025.51,488.5,1029.24,518.34Z"/><path class="cls-27" d="M1000.43,579.16c-18.57,0-36-22.59-39.76-52.25s7.42-50.67,28.37-53.29c17.62-2.2,38.47,10.76,42.68,44.41,3.9,31.16-8.87,58.5-28.46,61A22.4,22.4,0,0,1,1000.43,579.16Zm-7.31-100.8a27.14,27.14,0,0,0-3.46.22C971.72,480.82,963,501.09,964.45,528c1.57,29.61,20,50,36.81,47.85s31.16-28.65,25.5-57.2C1022,494.64,1010.13,478.36,993.12,478.36Z"/><ellipse class="cls-28" cx="1001.26" cy="526.26" rx="16.91" ry="27.65" transform="translate(-86.05 214.46) rotate(-11.73)"/><ellipse cx="1001.26" cy="526.26" rx="10.95" ry="17.9" transform="translate(-86.05 214.46) rotate(-11.73)"/></g></g><g id="Hair_Front" data-name="Hair Front"><path class="cls-18" d="M1097.56,356.56l-38.46-50L921.4,292.5,810.7,426.75l4.5,112.8L904.75,429.3l33.6-59.24s19.74-7.76,45.42,0,46.07,18.24,52.41,23.29,61.38-36.79,61.38-36.79"/><path class="cls-29" d="M1096.91,354.57l-54.39,43.83S993,353.66,938.35,373.17"/><path class="cls-18" d="M958,334.09s17,119.48-66.61,158.21c-61.67,28.56-45.53,139-47,161.7a2,2,0,0,1-2.9,1.65c-12-6.16-46.1-47-54.76-84.39"/><path class="cls-13" d="M1083.51,308.18c-25.78-14.17-255.34,70.36-324,172.56l27.16-52.83c46.72-68.57,232.95-147.91,284.7-148.84C1077,290,1079.45,297.51,1083.51,308.18Z"/><path class="cls-30" d="M958,334.09s17,119.48-66.61,158.21c-61.67,28.56-45.53,139-47,161.7a2,2,0,0,1-2.9,1.65c-12-6.16-42-37.77-50.65-75.15"/></g><g id="Mouth_1" data-name="Mouth 1"><path class="cls-31" d="M908.7,656.92s98.8-40.2,115.6-42,11.1,22.2,10.35,27-50.81,62.4-89.38,58.2-47-7.2-53.57-22.2-1.34-15,7.83-18Z"/><path class="cls-32" d="M908.7,656.92s7.81,33.51,17.3,40.79"/><path class="cls-32" d="M947.54,641.49s12.48,50.69,20.92,55"/><path class="cls-32" d="M985.79,627s12.6,39.57,20.15,45.88"/></g><g id="Nose"><path class="cls-33" d="M916.8,529.87c3.75,25.72-11,41-19.45,50-8,8.46.16,20.58,7.49,29.35l7.55,9"/></g><g id="Leg_Front" data-name="Leg Front"><polygon class="cls-6" points="623.5 1641 589.9 1641 599.5 1744.2 634.3 1744.2 623.5 1641"/><path class="cls-9" d="M595.07,1636.27c-85.87-16.76-152-2.28-218.86-33.72-15.82-2.39-56.11,1.62-65.71,14.42l-2.07,2.76c-14.26,19-14.44,48.51,5.47,61.47l29.7,25.2c17.68,11.51,48.11,22.14,68.4,27.9l55.91,7.44a111.77,111.77,0,0,0,30.58,4.26l91.26,1.61c6.43,0,17.1,3,17.1-3.41-12-23.67-12.85-64.41-5.25-97.89A8.34,8.34,0,0,0,595.07,1636.27Z"/><path class="cls-8" d="M928.66,1716.26l149.68-1.91c59.74-.77,130.09-23.3,170.06-67.71l123.92-156-30.17-129.86-115.65,30.6-116.92,32.4-89.36,111.41Z"/><path class="cls-8" d="M610.46,1648.61l9.14,94.69a6.84,6.84,0,0,0,7.39,6.2c41.43-3.49,263.34-27.18,419.51-46.7,151.64-19,298.09-179.77,331.67-218.86,4.68-5.44,16.25-35.52,16.63-53.39s-11-64.68-18.9-77c-11.41-17.71-14.67-20.94-26.69-31.12-40.51-34.31-101.9-27.36-151.26,7.56-172.31,121.9-343.08,222-511.45,288.16l-67.77,19.2A11.37,11.37,0,0,0,610.46,1648.61Z"/><path class="cls-34" d="M1327.53,1542.37,1379.2,1476l-55.5-53.26-73.5,172.06s33.3-18,18.6,5.1c-5.63,8.84,2.4,10.2,2.4,10.2Z"/></g></g><g id="Layer_3" data-name="Layer 3"><path class="cls-35" d="M374.27,1904.84a21.6,21.6,0,0,1-21.5-21.57v-6.64a21.66,21.66,0,0,1,6.55-15.47L496,1728.5a21.47,21.47,0,0,1,15-6.09l514.6,2.66a21.61,21.61,0,0,1,21.45,21.57v18.11a21.62,21.62,0,0,1-2.71,10.46L977.6,1895.54a21.61,21.61,0,0,1-18.86,11.1Z"/><path class="cls-36" d="M511,1725.91h.09l514.49,2.66a18.07,18.07,0,0,1,18,18.07v18.11a18.08,18.08,0,0,1-2.27,8.77l-66.77,120.32a18.05,18.05,0,0,1-15.79,9.3h-.06l-584.4-1.8a18.06,18.06,0,0,1-18-18.07v-6.64a18.08,18.08,0,0,1,5.48-13L498.44,1731a18.06,18.06,0,0,1,12.58-5.1m0-7a25,25,0,0,0-17.46,7.08L356.88,1858.65a25.16,25.16,0,0,0-7.61,18v6.64a25.11,25.11,0,0,0,25,25.07l584.4,1.8h.08a25.09,25.09,0,0,0,21.92-12.91l66.76-120.32a25.1,25.1,0,0,0,3.15-12.16v-18.11a25.13,25.13,0,0,0-24.94-25.07l-514.48-2.66Z"/><path class="cls-37" d="M1036.15,1742.69,969.36,1869l5.36-140.65,53,.27A9.61,9.61,0,0,1,1036.15,1742.69Z"/><path class="cls-38" d="M969.36,1869l7.77-363.25a18,18,0,0,0-17.82-18.38l-558.68-5.27a21,21,0,0,0-18.2,10.88l-28.26,375.13"/><line class="cls-38" x1="355.17" y1="1868.96" x2="900.83" y2="1868.96"/></g></svg>