<svg id="Layer_1" data-name="Layer 1" xmlns="http://www.w3.org/2000/svg" viewBox="0 0 450 100"><defs><style>.cls-1{fill:#a0ced9;}.cls-2{fill:#192640;}.cls-3{fill:#fff;}.cls-4{fill:#ffff4f;}.cls-5{fill:none;stroke:#ffff4f;stroke-linecap:round;stroke-miterlimit:10;stroke-width:2px;}.cls-6{fill:#545441;}.cls-7{fill:#ffffe3;}.cls-8{fill:#f0f0d3;}</style></defs><rect class="cls-1" width="225" height="100"/><rect class="cls-2" x="225" width="225" height="100"/><rect class="cls-3" x="-21" y="29.9" width="42" height="11.5" rx="5.75" transform="translate(0 71.3) rotate(180)"/><rect class="cls-3" x="15.63" y="59.79" width="42" height="11.5" rx="5.75" transform="translate(73.27 131.09) rotate(180)"/><rect class="cls-3" x="3.3" y="65.3" width="42" height="14.75" rx="7.37" transform="translate(48.6 145.36) rotate(180)"/><rect class="cls-3" x="154.34" y="14.33" width="43.8" height="11.99" rx="6"/><rect class="cls-3" x="163.38" y="7.64" width="43.8" height="11.99" rx="6"/><rect class="cls-3" x="176.24" y="15.2" width="43.8" height="15.38" rx="7.69"/><circle class="cls-4" cx="112.72" cy="50" r="32.1"/><line class="cls-5" x1="151.72" y1="50" x2="171.68" y2="50"/><line class="cls-5" x1="53.32" y1="50" x2="73.28" y2="50"/><line class="cls-5" x1="112.5" y1="89.22" x2="112.5" y2="109.18"/><line class="cls-5" x1="112.5" y1="-9.18" x2="112.5" y2="10.78"/><line class="cls-5" x1="140.24" y1="77.74" x2="151.72" y2="89.22"/><line class="cls-5" x1="70.66" y1="8.16" x2="84.76" y2="22.26"/><line class="cls-5" x1="140.24" y1="22.26" x2="154.34" y2="8.16"/><line class="cls-5" x1="70.66" y1="91.84" x2="84.76" y2="77.74"/><circle class="cls-6" cx="337.5" cy="50" r="32.1"/><path class="cls-7" d="M323.38,55.05A32.08,32.08,0,0,1,335.13,18,32.1,32.1,0,1,0,356,76.25,32.09,32.09,0,0,1,323.38,55.05Z"/><path class="cls-8" d="M414.44,19.94s-.55,5.37-5.92,4.82c0,0,5.27,1.5,4.82,5.92,0,0,1-4.95,5.52-4.49C418.86,26.19,413.86,25.63,414.44,19.94Z"/><path class="cls-8" d="M390.64,57.26s3.47,4.14-.67,7.61c0,0,4.75-2.74,7.61.67,0,0-2.83-4.19.62-7.08C398.2,58.46,394.31,61.65,390.64,57.26Z"/><path class="cls-8" d="M433.57,51.51s5.15,1.61,3.54,6.77c0,0,2.52-4.88,6.77-3.55,0,0-4.65-2-3.31-6.3C440.57,48.43,439,53.22,433.57,51.51Z"/><path class="cls-8" d="M246.46,29.9s2.59-4.73,7.33-2.14c0,0-4.28-3.43-2.14-7.33,0,0-2.88,4.16-6.83,2C244.82,22.42,249.21,24.89,246.46,29.9Z"/><path class="cls-8" d="M420.56,79s.7,3.48-4.71,4.56c0,0,5.53-.46,6.1,2.41,0,0-.12-3.35,4.39-4.25C426.34,81.7,421.3,82.67,420.56,79Z"/><path class="cls-8" d="M377.5,5.29s1.2,5.27-4.06,6.47c0,0,5.47-.27,6.46,4.06,0,0-.6-5,3.79-6C383.69,9.8,378.77,10.87,377.5,5.29Z"/><path class="cls-8" d="M280.53,10.62s2.47,4.8-2.33,7.27c0,0,5.24-1.62,7.27,2.33,0,0-1.83-4.71,2.17-6.77C287.64,13.45,283.15,15.7,280.53,10.62Z"/><path class="cls-8" d="M317.14,85.85s-1.79,5.1-6.88,3.31c0,0,4.78,2.69,3.3,6.88,0,0,2.17-4.57,6.42-3.08C320,93,315.25,91.25,317.14,85.85Z"/><path class="cls-8" d="M267.14,72.68s.76,6.3-3.91,6.87a6.4,6.4,0,0,1,5.44,5.73s-.25-5.92,3.64-6.4C272.31,78.88,268,79.35,267.14,72.68Z"/><path class="cls-8" d="M288.54,42.22s-3.2,5.48-7.27,3.1a6.41,6.41,0,0,1,.86,7.86s3.38-4.87,6.77-2.89C288.9,50.29,285.15,48,288.54,42.22Z"/></svg>