<svg id="Layer_1" data-name="Layer 1" xmlns="http://www.w3.org/2000/svg" xmlns:xlink="http://www.w3.org/1999/xlink" viewBox="0 0 512 512">
	<defs>
		<style>
			.cls-1{fill:#8dcbeb;}
			.cls-2{fill:#c7a341;}
			.cls-3{fill:#d2b24b;}
			.cls-4{fill:#dcbe52;}
			.cls-5{fill:#d8ba4e;}
			.cls-6{fill:#cba841;}
			.cls-7{fill:#c8a441;}
			.cls-8{fill:#c7a440;}
			.cls-9{fill:#c8a546;}
			.cls-10{fill:#c7a548;}
			.cls-11{fill:#d7b954;}
			.cls-12{fill:#cead51;}
			.cls-13{fill:#d1b25e;}
			.cls-14{fill:#dbbf62;}
			.cls-15{fill:#dcbf52;}
			.cls-16{fill:#d4b44a;}
			.cls-17{fill:#d7b951;}
			.cls-18{fill:#cead4b;}
			.cls-19{fill:#d0b154;}
			.cls-20{fill:#dbbe5c;}
			.cls-21{fill:#d9bd6d;}
			.cls-22{fill:#e4cb5c;}
			.cls-23{fill:#e4cb5c;}
			.cls-24{fill:#e2c75e;}
			.cls-25{fill:#e2c75e;}
			.cls-26{fill:#e2c861;}
			.cls-27{fill:#e4cb5d;}
			.cls-28{fill:#e7cf60;}
			.cls-29{fill:#e7cf65;}
			.cls-30{fill:#e8d164;}
			.cls-31{fill:#e6ce64;}
			.cls-32{fill:#dbc170;}
			.cls-33{fill:#e2c967;}
			.cls-34{fill:#e3c969;}
			.cls-35{fill:#c4c3bc;}
			.cls-36{fill:#c7c6bf;}
			.cls-37{fill:#a1a09a;}
			.cls-38{fill:#deddd5;}
			.cls-39{fill:#bab9b3;}
			.cls-40{fill:#f0efe6;}
			.cls-41{fill:#c2c1ba;}
			.cls-42{fill:#fffef4;}
			.cls-43{fill:#e6e5dc;}
			.cls-44{fill:#a6a59f;}
			.cls-45{fill:#edece4;}
			.cls-46{fill:#d4d3cb;}
		</style>
	</defs>
	<circle class="cls-1" cx="255.26" cy="256" r="239.29"></circle>
	<g id="Sun">
		<polygon class="cls-2" points="79.2 236.1 121.5 236.1 117 138.9 103.5 156.6 79.2 236.1"></polygon>
		<polygon class="cls-2" points="79.2 236.1 108.9 320.1 121.5 236.1 79.2 236.1"></polygon>
		<polygon class="cls-3" points="117 138.9 178.5 149.4 121.5 236.1 117 138.9"></polygon>
		<polygon class="cls-4" points="178.5 149.4 225.9 236.1 121.5 236.1 178.5 149.4"></polygon>
		<polygon class="cls-5" points="121.5 236.1 183 336.3 225.9 236.1 121.5 236.1"></polygon>
		<polygon class="cls-6" points="108.9 320.1 183 336.3 121.5 236.1 108.9 320.1"></polygon>
		<polygon class="cls-7" points="108.9 320.1 110.7 326.7 171.6 387.9 183 336.3 108.9 320.1"></polygon>
		<polygon class="cls-8" points="183 336.3 270.9 393.9 191.25 393.9 171.6 387.9 183 336.3"></polygon>
		<polygon class="cls-9" points="191.25 393.9 256.65 411.3 270.9 393.9 191.25 393.9"></polygon>
		<polygon class="cls-10" points="256.65 411.3 348.15 386.4 270.9 393.9 256.65 411.3"></polygon>
		<polygon class="cls-11" points="117 138.9 211.35 77.7 178.5 149.4 117 138.9"></polygon>
		<polygon class="cls-12" points="211.35 77.7 165.45 85.8 117 138.9 211.35 77.7"></polygon>
		<polygon class="cls-13" points="211.35 77.7 256 59.02 165.45 85.8 211.35 77.7"></polygon>
		<polygon class="cls-14" points="211.35 77.7 323.63 79.5 256 59.02 211.35 77.7"></polygon>
		<polygon class="cls-15" points="225.9 236.1 282.9 322.05 183 336.3 225.9 236.1"></polygon>
		<polygon class="cls-16" points="282.9 322.05 270.9 393.9 183 336.3 282.9 322.05"></polygon>
		<polygon class="cls-17" points="282.9 322.05 369.07 333.98 270.9 393.9 282.9 322.05"></polygon>
		<polygon class="cls-18" points="369.07 333.98 348.15 386.4 270.9 393.9 369.07 333.98"></polygon>
		<polygon class="cls-19" points="369.07 333.98 348.15 386.4 414.07 315.3 369.07 333.98"></polygon>
		<polygon class="cls-20" points="414.07 315.3 369.07 333.98 420.6 236.1 414.07 315.3"></polygon>
		<polygon class="cls-21" points="420.6 236.1 427.35 236.1 414.07 315.3 420.6 236.1"></polygon>
		<polygon class="cls-22" points="225.9 236.1 282.9 322.05 331.5 236.1 225.9 236.1"></polygon>
		<polygon class="cls-23" points="282.9 322.05 369.07 333.98 331.5 236.1 282.9 322.05"></polygon>
		<polygon class="cls-24" points="331.5 236.1 420.6 236.1 369.07 333.98 331.5 236.1"></polygon>
		<polygon class="cls-25" points="211.35 77.7 178.5 149.4 282.3 134.4 211.35 77.7"></polygon>
		<polygon class="cls-26" points="211.35 77.7 282.3 134.4 323.63 79.5 211.35 77.7"></polygon>
		<polygon class="cls-27" points="282.3 134.4 225.9 236.1 178.5 149.4 282.3 134.4"></polygon>
		<polygon class="cls-28" points="282.3 134.4 331.5 236.1 225.9 236.1 282.3 134.4"></polygon>
		<polygon class="cls-29" points="282.3 134.4 373.8 149.4 323.63 79.5 282.3 134.4"></polygon>
		<polygon class="cls-30" points="373.8 149.4 331.5 236.1 282.3 134.4 373.8 149.4"></polygon>
		<polygon class="cls-31" points="331.5 236.1 373.8 149.4 420.6 236.1 331.5 236.1"></polygon>
		<polygon class="cls-32" points="420.6 236.1 427.35 236.1 406.65 141.38 420.6 236.1"></polygon>
		<polygon class="cls-33" points="373.8 149.4 406.65 141.38 420.6 236.1 373.8 149.4"></polygon>
		<polygon class="cls-34" points="373.8 149.4 406.65 141.38 323.63 79.5 373.8 149.4"></polygon>
	</g>
	<g id="Cloud_2" data-name="Cloud 2">
		<path class="cls-35" d="M6.92,398.66l-.71.6,15.75,45q4.83-9.87,10-19.55Q19.41,411.77,6.92,398.66Z"></path>
		<path class="cls-36" d="M32,424.71q-5.22,9.68-10,19.55l.87,2.48,26.88,15.35q5.41-4.21,10.82-8.49Q46.16,439.26,32,424.71Z"></path>
		<path class="cls-37" d="M49.71,462.09l.82.47,32.89,13.59q-11.57-11.2-22.89-22.55Q55.13,457.88,49.71,462.09Z"></path>
		<path class="cls-38" d="M74.09,357.3A654.25,654.25,0,0,0,32,424.71q14.16,14.57,28.52,28.89c17.41-13.77,34.64-27.82,52-41.61C99.54,393.91,87,375.47,74.09,357.3Z"></path>
		<path class="cls-39" d="M60.53,453.6q11.35,11.34,22.89,22.55l3.51,1.45,74.15-4.72c-17.52-19.1-33.31-39.74-48.53-60.89C95.17,425.78,77.94,439.83,60.53,453.6Z"></path>
		<path class="cls-40" d="M161.48,373.14c-.64.79-86.43-16.8-86.43-16.8l-.4.16-.3.42c.4.29.62.77,1.31.77-.69,0-.91-.48-1.31-.77-.09.12-.17.25-.26.38C87,375.47,99.54,393.91,112.55,412c16.88-13.41,33.9-26.56,51.38-39l-.23-.28A10.66,10.66,0,0,0,161.48,373.14Z"></path>
		<path class="cls-38" d="M163.7,372.73l.23.28.52-.38Z"></path>
		<path class="cls-41" d="M206.05,469.05l1.87-.15,43.32,8.57q-18.3-20.19-35.77-41.1Q210.39,452.57,206.05,469.05Z"></path>
		<path class="cls-40" d="M291.69,405.34l-.39-.3c-22.18.73-44.22,2.24-66.2,3.85A679,679,0,0,0,279.17,454Q285.19,429.61,291.69,405.34Z"></path>
		<path class="cls-38" d="M225.1,408.89l-.38,0q-4.89,13.63-9.25,27.46,17.52,20.85,35.77,41.1l.64.13,22.57-4.1q2.31-9.75,4.72-19.49A679,679,0,0,1,225.1,408.89Z"></path>
		<path class="cls-42" d="M291.3,405c-10.93-8.36-47.3-38.66-49.18-40.22q-9.31,21.68-17.29,43.81l.27.26C247.08,407.28,269.12,405.77,291.3,405Z"></path>
		<path class="cls-38" d="M225.1,408.89l-.27-.26c0,.1-.07.19-.11.28Z"></path>
		<path class="cls-43" d="M294.31,407.17a20.6,20.6,0,0,1-2.62-1.83q-9.1,33.93-17.24,68.16l3.57-.65,29.71-39.57S296.65,408,294.31,407.17Z"></path>
		<path class="cls-38" d="M215.47,436.37C198,415.52,180.9,394.28,163.93,373c-17.48,12.42-34.5,25.57-51.38,39q9.27,12.87,18.91,25.43c25.46,8.14,51.19,15.56,77.19,22Q211.86,447.85,215.47,436.37Z"></path>
		<path class="cls-44" d="M131.46,437.42c9.43,12.22,19.21,24.12,29.62,35.46l.4,0,44.57-3.8q1.26-4.8,2.6-9.59C182.65,453,156.92,445.56,131.46,437.42Z"></path>
		<path class="cls-45" d="M242,364.75s-63,6-77.59,7.88l-.52.38c17,21.27,34,42.51,51.54,63.36a756.16,756.16,0,0,1,26.65-71.55Z"></path>
		<path class="cls-38" d="M74.65,356.5l-.63.25a1,1,0,0,1,.33.17Z"></path>
		<path class="cls-46" d="M73.77,356.85,41,370,6.92,398.66q12.51,13.11,25.09,26A654.25,654.25,0,0,1,74.09,357.3Z"></path>
		<path class="cls-38" d="M74.35,356.92a1,1,0,0,0-.33-.17l-.25.1.32.45C74.18,357.17,74.26,357,74.35,356.92Z"></path>
	</g>
	<g id="Cloud_1" data-name="Cloud 1">
		<path class="cls-35" d="M509.45,269.74l.72.6-15.75,45q-4.83-9.87-10.05-19.55Q497,282.85,509.45,269.74Z"></path>
		<path class="cls-36" d="M484.37,295.79q5.22,9.68,10.05,19.55l-.87,2.48-26.88,15.35q-5.42-4.21-10.82-8.49Q470.22,310.34,484.37,295.79Z"></path>
		<path class="cls-37" d="M466.67,333.17l-.82.47L433,347.23q11.57-11.21,22.89-22.55Q461.25,329,466.67,333.17Z"></path>
		<path class="cls-38" d="M442.29,228.38a654.25,654.25,0,0,1,42.08,67.41q-14.16,14.56-28.52,28.89c-17.41-13.77-34.64-27.82-52-41.61C416.84,265,429.43,246.55,442.29,228.38Z"></path>
		<path class="cls-39" d="M455.85,324.68Q444.49,336,433,347.23l-3.51,1.45L355.3,344c17.52-19.1,33.31-39.74,48.53-60.89C421.21,296.86,438.44,310.91,455.85,324.68Z"></path>
		<path class="cls-40" d="M354.9,244.22c.64.79,86.43-16.8,86.43-16.8l.4.16.3.42c-.4.29-.62.77-1.31.77.69,0,.91-.48,1.31-.77.09.12.17.25.26.38-12.86,18.17-25.45,36.61-38.46,54.69-16.88-13.41-33.9-26.56-51.38-39l.23-.27A10.31,10.31,0,0,1,354.9,244.22Z"></path>
		<path class="cls-38" d="M352.68,243.82l-.23.27-.53-.38Z"></path>
		<path class="cls-41" d="M310.33,340.13l-1.87-.15-43.32,8.57q18.3-20.19,35.76-41.1Q306,323.65,310.33,340.13Z"></path>
		<path class="cls-40" d="M224.69,276.42l.39-.3c22.17.73,44.22,2.24,66.2,3.85a680.75,680.75,0,0,1-54.07,45.12Q231.2,300.69,224.69,276.42Z"></path>
		<path class="cls-38" d="M291.28,280l.38,0q4.89,13.63,9.24,27.46-17.5,20.85-35.76,41.1l-.64.13-22.57-4.1q-2.31-9.75-4.72-19.49A680.75,680.75,0,0,0,291.28,280Z"></path>
		<path class="cls-42" d="M225.08,276.12c10.93-8.36,47.3-38.66,49.18-40.22q9.32,21.67,17.29,43.81l-.27.26C269.3,278.36,247.25,276.85,225.08,276.12Z"></path>
		<path class="cls-38" d="M291.28,280l.27-.26c0,.1.07.19.11.28Z"></path>
		<path class="cls-43" d="M222.07,278.25a20.6,20.6,0,0,0,2.62-1.83q9.1,33.93,17.24,68.16l-3.57-.65-29.71-39.57S219.73,279,222.07,278.25Z"></path>
		<path class="cls-38" d="M300.9,307.45c17.52-20.85,34.58-42.09,51.55-63.36,17.48,12.42,34.5,25.57,51.38,39q-9.27,12.87-18.91,25.43c-25.46,8.14-51.19,15.56-77.19,22Q304.51,318.93,300.9,307.45Z"></path>
		<path class="cls-44" d="M384.92,308.5c-9.43,12.22-19.21,24.12-29.62,35.46l-.4,0-44.57-3.8q-1.26-4.8-2.6-9.59C333.73,324.06,359.46,316.64,384.92,308.5Z"></path>
		<path class="cls-45" d="M274.34,235.83s63,6,77.58,7.88l.53.38c-17,21.27-34,42.51-51.55,63.36a753.35,753.35,0,0,0-26.64-71.55Z"></path>
		<path class="cls-38" d="M441.73,227.58l.63.25a1,1,0,0,0-.33.17Z"></path>
		<path class="cls-46" d="M442.61,227.93l32.74,13.12,34.1,28.69Q497,282.85,484.37,295.79a654.25,654.25,0,0,0-42.08-67.41Z"></path>
		<path class="cls-38" d="M442,228a1,1,0,0,1,.33-.17l.25.1-.32.45C442.2,228.25,442.12,228.12,442,228Z"></path>
	</g>
</svg>